HIERARCHY
ROOT Hips
{
  OFFSET 0 0 0
  CHANNELS 6 Xposition Yposition Zposition Zrotation Yrotation Xrotation
  JOINT LeftThigh
  {
    OFFSET 8.409438 0 -5.917753
    CHANNELS 3 Zrotation Yrotation Xrotation
    JOINT LeftLeg
    {
      OFFSET 0 0 -42.358652
      CHANNELS 3 Zrotation Yrotation Xrotation
      JOINT LeftFoot
      {
        OFFSET 0 0 -39.357303
        CHANNELS 3 Zrotation Yrotation Xrotation
      }
    }
  }
  JOINT RightThigh
  {
    OFFSET -8.409438 0 -5.917753
    CHANNELS 3 Zrotation Yrotation Xrotation
    JOINT RightLeg
    {
      OFFSET 0 0 -42.358652
      CHANNELS 3 Zrotation Yrotation Xrotation
      JOINT RightFoot
      {
        OFFSET 0 0 -39.357303
        CHANNELS 3 Zrotation Yrotation Xrotation
      }
    }
  }
  JOINT SpineLow
  {
    OFFSET 0 0 4.719101
    CHANNELS 3 Zrotation Yrotation Xrotation
    JOINT SpineMid
    {
      OFFSET 0 0 12.899191
      CHANNELS 3 Zrotation Yrotation Xrotation
      JOINT Chest
      {
        OFFSET 0 0 12.899191
        CHANNELS 3 Zrotation Yrotation Xrotation
        JOINT LeftShoulder
        {
          OFFSET 7.550562 1.41573 9.438202
          CHANNELS 3 Zrotation Yrotation Xrotation
          JOINT LeftArm
          {
            OFFSET 9.155056 0 4.247191
            CHANNELS 3 Zrotation Yrotation Xrotation
            JOINT LeftForearm
            {
              OFFSET 0 0 25.771955
              CHANNELS 3 Zrotation Yrotation Xrotation
              JOINT LeftHand
              {
                OFFSET 0 0 25.197169
                CHANNELS 3 Zrotation Yrotation Xrotation
              }
            }
          }
        }
        JOINT RightShoulder
        {
          OFFSET -7.550562 1.41573 9.438202
          CHANNELS 3 Zrotation Yrotation Xrotation
          JOINT RightArm
          {
            OFFSET -9.155056 0 4.247191
            CHANNELS 3 Zrotation Yrotation Xrotation
            JOINT RightForearm
            {
              OFFSET 0 0 -25.771955
              CHANNELS 3 Zrotation Yrotation Xrotation
              JOINT RightHand
              {
                OFFSET 0 0 -25.197169
                CHANNELS 3 Zrotation Yrotation Xrotation
              }
            }
          }
        }
        JOINT Neck
        {
          OFFSET 0 0 15.101124
          CHANNELS 3 Zrotation Yrotation Xrotation
          JOINT Head
          {
            OFFSET 0 0 11.325843
            CHANNELS 3 Zrotation Yrotation Xrotation
            End Site
            {
              OFFSET 0 0 14.157303
            }
          }
        }
      }
    }
  }
}
MOTION
Frames: 5
Frame Time: 0.0
0.0  101.685394  0.0  11.666674  53.420309  -84.564571  -10.643572  -9.410268  -14.230313  -18.564499  16.947419  29.303052  2.548817  4.115339  2.092501  -41.695482  22.836775  -12.440424  -17.740131  14.936711  26.168976  8.191137  5.352003  -5.180261  -0.723078  1.607107  1.816195  -1.856959  4.443934  4.922601  -1.856959  4.443934  4.922602  26.928999  20.256452  21.323638  171.35294  22.16305  -172.460571  2.025345  9.630897  132.267298  77.382141  -5.900572  -6.892708  28.897808  1.174539  12.498405  133.097012  27.952946  92.239387  -74.913173  49.396091  -82.173895  85.551657  25.274187  11.967392  -14.650983  -0.403489  -4.778744  -10.992145  -0.188157  -3.596172  
0.0  101.685394  0.0  10.757697  51.766794  -85.609923  -10.406774  -9.727494  -13.534439  -17.873651  16.606743  29.463496  2.857291  4.244053  2.082413  -41.62846  22.799414  -12.549214  -17.031465  14.437444  26.067303  8.616784  5.415929  -5.100284  -0.773721  1.611233  1.824619  -1.994621  4.459189  4.942122  -1.994621  4.459189  4.942122  26.916043  20.605896  21.584394  171.421126  22.464063  -171.999785  2.039548  8.452701  131.854009  78.012964  -5.346988  -7.108736  28.399985  1.592624  12.400541  133.347807  27.412891  91.153252  -75.198143  48.965414  -81.821771  86.115971  25.191047  12.016393  -14.148792  -0.372108  -4.711008  -10.615174  -0.170099  -3.544115  
0.0  101.685394  0.0  9.660184  49.666123  -86.802152  -9.753103  -10.174426  -12.68104  -17.279393  16.315197  29.476868  3.297058  4.299018  2.098212  -41.002526  22.62813  -12.539422  -16.178821  13.855677  26.038521  9.034503  5.443969  -5.01108  -0.780477  1.592458  1.847103  -2.012946  4.409062  5.003648  -2.012946  4.409062  5.003648  26.815309  21.023572  21.694878  171.674276  22.733759  -171.444458  2.126658  7.384676  131.488989  79.062968  -4.437505  -7.395772  27.790644  2.022037  12.180049  133.667461  27.268457  90.02054  -75.531106  48.455582  -81.677078  86.746791  25.156268  12.071681  -13.68226  -0.322929  -4.699378  -10.264872  -0.137046  -3.533857  
0.0  101.685394  0.0  8.439437  47.087846  -88.167317  -8.573598  -10.67482  -11.581884  -16.63817  15.857132  29.505139  3.530805  4.368348  2.098426  -40.059666  22.338084  -12.498643  -15.467569  13.439699  25.949544  9.498813  5.474304  -4.848574  -0.742024  1.556123  1.884875  -1.907945  4.307969  5.110424  -1.907945  4.307969  5.110424  26.677939  21.47247  21.676212  172.070884  22.901891  -170.809115  2.105513  5.807587  131.019617  80.137592  -3.249826  -7.803921  27.034531  2.400839  11.94434  134.123612  27.495069  88.866621  -75.938321  47.957594  -81.737513  87.331548  25.103677  12.16387  -13.048776  -0.308541  -4.699959  -9.789619  -0.131106  -3.533461  
0.0  101.685394  0.0  7.257669  44.035051  -89.540602  -6.998969  -11.057904  -10.388189  -16.073666  15.222155  29.556797  3.716271  4.468782  2.090384  -38.485269  21.983577  -12.268046  -14.851122  13.076856  25.831638  9.876651  5.471513  -4.675384  -0.65342  1.520552  1.929384  -1.665429  4.205067  5.238718  -1.665429  4.205067  5.238718  26.450906  21.932956  21.575308  172.690876  23.025021  -170.017992  2.01706  3.759452  130.4176  81.223988  -1.795211  -8.183259  26.128824  2.688182  11.708519  134.634634  28.065388  87.646114  -76.538344  47.543718  -81.98009  87.712161  25.083732  12.183569  -12.43992  -0.261675  -4.692268  -9.332587  -0.100776  -3.526256  
